<?xml version="1.0" standalone="no"?>
<!DOCTYPE svg PUBLIC "-//W3C//DTD SVG 20010904//EN"
 "http://www.w3.org/TR/2001/REC-SVG-20010904/DTD/svg10.dtd">
<svg version="1.0" xmlns="http://www.w3.org/2000/svg"
 width="545.000000pt" height="545.000000pt" viewBox="0 0 545.000000 545.000000"
 preserveAspectRatio="xMidYMid meet">
<metadata>
Created by potrace 1.14, written by Peter Selinger 2001-2017
</metadata>
<g transform="translate(0.000000,545.000000) scale(0.100000,-0.100000)"
fill="#000000" stroke="none">
<path d="M2596 5004 c-139 -34 -264 -129 -343 -259 -7 -11 -24 -40 -39 -65
-15 -25 -41 -67 -59 -95 -17 -27 -58 -93 -90 -145 -32 -52 -68 -111 -80 -130
-12 -19 -36 -57 -53 -85 -17 -27 -36 -55 -42 -62 -5 -7 -10 -14 -10 -17 0 -2
-18 -33 -40 -67 -21 -35 -54 -88 -72 -118 -42 -68 -247 -401 -362 -586 -17
-28 -36 -59 -43 -70 -7 -11 -38 -62 -70 -113 -32 -51 -62 -100 -68 -110 -10
-17 -99 -161 -160 -257 -17 -27 -46 -75 -65 -105 -34 -56 -61 -100 -104 -167
-13 -21 -63 -103 -112 -183 -49 -80 -92 -146 -96 -148 -4 -2 -8 -8 -8 -13 0
-6 -18 -37 -40 -70 -22 -33 -40 -63 -40 -65 0 -3 -23 -39 -50 -81 -28 -42 -50
-77 -50 -79 0 -3 -23 -40 -50 -84 -28 -44 -50 -84 -50 -90 0 -5 -4 -10 -9 -10
-5 0 -14 -13 -21 -30 -7 -16 -16 -30 -21 -30 -5 0 -9 -4 -9 -10 0 -5 -53 -94
-117 -197 -210 -338 -210 -338 -220 -445 -13 -140 47 -302 152 -414 32 -34
114 -93 154 -111 124 -53 118 -53 671 -53 l515 0 -44 20 c-77 35 -123 107
-122 192 0 56 15 86 170 335 57 93 142 229 187 303 46 74 87 140 91 145 5 6
31 48 59 95 28 47 104 171 169 275 65 105 123 199 129 210 6 11 28 46 49 78
20 31 37 60 37 63 0 2 5 10 11 17 5 7 59 91 118 187 59 96 174 283 255 415 82
132 205 331 274 443 113 185 126 201 138 184 50 -72 264 -440 359 -617 150
-281 363 -733 430 -911 210 -561 78 -955 -400 -1191 -44 -22 -109 -50 -145
-62 -36 -13 -74 -27 -85 -31 -58 -23 -282 -75 -410 -94 -16 -3 -48 -7 -70 -11
-22 -3 -60 -8 -85 -11 -25 -2 -65 -7 -90 -10 -25 -2 -85 -7 -134 -10 -50 -2
-92 -7 -95 -9 -2 -3 604 -5 1347 -5 l1352 0 77 26 c189 63 318 203 367 395 17
71 21 184 7 221 -5 13 -17 48 -26 78 -16 48 -31 77 -92 176 -7 10 -31 51 -55
89 -23 39 -46 72 -50 73 -5 2 -8 8 -8 12 0 8 -42 76 -128 210 -9 14 -17 27
-17 30 -1 3 -21 37 -46 75 -25 39 -58 90 -73 115 -15 25 -45 72 -66 105 -22
33 -43 67 -47 75 -3 8 -24 41 -45 72 -21 31 -38 62 -38 67 0 6 -4 11 -10 11
-5 0 -10 4 -10 9 0 4 -59 102 -131 217 -73 115 -164 261 -202 324 -39 63 -124
201 -190 305 -66 105 -127 204 -137 220 -17 29 -170 274 -190 305 -17 26 -372
594 -389 622 -149 250 -345 549 -391 595 -56 55 -153 111 -241 136 -61 19
-191 19 -263 1z m-1031 -2812 c-14 -10 -85 -128 -85 -141 0 -6 -5 -11 -11 -11
-5 0 -15 -13 -20 -30 -6 -16 -15 -30 -20 -30 -5 0 -9 -5 -9 -12 0 -6 -11 -26
-25 -44 -14 -18 -25 -36 -25 -39 0 -4 -13 -27 -30 -52 -16 -24 -30 -45 -30
-47 0 -2 -25 -45 -55 -95 -30 -51 -55 -96 -55 -101 0 -6 -4 -10 -8 -10 -5 0
-17 -17 -29 -37 -11 -21 -46 -83 -78 -138 -32 -55 -66 -113 -74 -130 -9 -16
-18 -32 -21 -35 -11 -10 -97 -167 -154 -282 -50 -100 -59 -127 -64 -186 -5
-76 7 -127 44 -181 28 -41 23 -54 -6 -20 -64 73 -81 194 -44 304 27 79 109
249 190 390 59 104 61 108 133 227 90 150 465 708 475 708 7 0 8 -3 1 -8z
m3101 -80 c4 -20 9 -41 13 -47 3 -5 7 -17 8 -25 24 -148 23 -462 -1 -530 -3
-8 -7 -26 -10 -40 -7 -44 -46 -151 -78 -214 -54 -106 -114 -176 -248 -284 -66
-54 -310 -192 -310 -176 0 4 -8 0 -18 -9 -10 -9 -27 -18 -38 -20 -10 -2 -41
-13 -68 -25 -27 -12 -50 -22 -52 -22 -1 0 -15 -5 -31 -12 -15 -6 -30 -12 -33
-13 -3 -1 -24 -7 -47 -13 -23 -7 -70 -21 -104 -32 -110 -35 -97 -20 16 19 120
42 204 76 298 121 33 17 66 30 74 30 7 0 13 4 13 9 0 5 10 13 22 17 22 7 198
111 208 124 3 3 25 21 50 40 181 138 287 324 335 584 29 159 19 422 -21 550
-4 12 -2 16 5 12 5 -4 13 -23 17 -44z"/>
</g>
</svg>
