<svg width="27" height="66" viewBox="0 0 27 66" fill="none" xmlns="http://www.w3.org/2000/svg">
<g id="icon1 1" clip-path="url(#clip0_1_2)">
<g id="Layer_x0020_1">
<path id="Vector" fill-rule="evenodd" clip-rule="evenodd" d="M13.98 52.87C14.35 52.07 14.58 51.13 14.65 50.13C15.66 51.23 16.88 52.81 15.89 54C15.67 54.26 15.48 54.61 15.3 54.97C12.35 60.86 18.74 65.84 18.28 55.75C18.57 55.98 19.01 56.57 19.31 56.93C19.64 57.33 20.01 57.7 20.31 58.08C20.6 58.72 20.22 60.76 22.08 62.99C27.5 69.49 27.75 60.61 22.55 58.37C22.14 58.19 21.6 58.11 21.27 57.83C20.77 57.42 20.04 56.46 19.61 55.93C19.64 55.5 19.44 55.8 19.72 55.6C24.7 57.32 28.12 54.56 22.1 52.44C20.12 51.74 19.2 52.08 17.38 52.6C16.75 52.02 15 48.78 14.56 47.84C15.77 48.4 16.28 49.01 18.03 49.14C24.53 49.64 20.34 44.93 15.96 45.1C14.84 45.14 14.34 45.47 13.47 45.72L12.22 42.61C12.25 42.35 12.23 42.43 12.32 42.33C13.67 43.19 13.75 43.33 15.57 43.78C17.92 43.93 19.48 43.63 17.32 41.38C16.1 40.11 14.89 39.34 13.1 39.15L11.02 39.28C10.67 38.7 10.03 36.69 9.9 35.98L9.89 35.97C9.65 35.61 11.77 37.28 12.47 37.54C13.79 38.03 15.07 37.87 16.29 37.54C15.92 36.46 15.12 35.23 14.16 34.43C12.37 32.92 11.09 33.02 8.94 33.05L8.01 28.98C8.42 28.41 9.42 29.88 10.83 30.34C11.79 30.65 12.77 30.75 13.83 30.48C15.83 29.96 11.58 26.08 9.3 25.77C8.6 25.67 8.07 25.73 7.38 25.74C6.92 24.92 6.7 22.13 6.46 21C7.26 21.88 7.61 22.54 8.71 23.23C9.51 23.73 10.29 24.01 11.28 24.08C13.82 24.26 11.18 20.61 10.41 19.84C9.36 18.79 8.07 18.25 6.09 18.06L5.76 14.57C6.59 15.24 6.91 16.05 8.06 16.73C9.13 17.36 10.08 17.62 11.64 17.52C11.79 16.18 10.57 14.13 9.61 13.22C8.56 12.23 7.53 11.75 5.7 11.54L5.63 8.27L5.95 7.62C6.39 8.5 7.35 9.36 8.19 9.84C8.88 10.23 10.59 10.94 11.63 10.51C11.94 8.59 9.79 6.02 8.13 5.22C7.32 4.83 6.52 4.81 5.95 4.54C5.83 3.26 6.22 1.31 6.32 -0.00999832H5.43C5.37 1.27 5.08 3.11 5.09 4.3C4.65 4.75 4.72 4.72 4.13 4.94C0.249997 6.43 -0.730003 11.32 0.479997 12.28C1.9 11.97 4.17 10.14 4.64 8.62C4.87 9.12 4.74 10.98 4.69 11.67C3.46 12.07 2.5 12.72 1.77 13.49C0.599997 14.73 -0.590003 17.53 0.349997 19.18C1.87 19.27 4.42 16.69 4.84 15.11L5.13 18.29C2.32 19.25 0.119997 21.97 0.949997 25.72C3.01 25.63 4.73 23.16 5.61 21.57C5.84 23.02 6.28 24.63 6.35 26.09C5.09 27.02 3.98 27.89 3.38 29.64C2.9 31.04 2.89 33.36 3.57 34.19C4.16 34.9 5.63 33.02 5.99 32.52C6.99 31.17 6.8 30.6 7.28 30.06L7.98 33.5C7.49 33.95 7.04 34.05 6.48 34.69C4.55 36.92 4.34 39.02 5.47 41.61C6.19 41.7 7.51 40.21 7.96 39.55C8.61 38.6 8.75 37.87 9.1 36.67L10.07 39.59C9.87 40.14 8.23 40.91 7.47 43.21C6.93 44.83 7.1 47.07 8.14 48.14C8.72 48.05 9.99 46.53 10.34 45.95C11 44.86 11 44.31 11.34 43.02L12.66 46.2C12.43 46.92 11.03 47.92 10.84 50.38C10.67 52.54 11.95 57.26 13.97 52.84L13.98 52.87Z" fill="#4EDF54"/>
</g>
</g>
<defs>
<clipPath id="clip0_1_2">
<rect width="26.3" height="65.33" fill="white"/>
</clipPath>
</defs>
</svg>
